<svg width="29" height="36" viewBox="0 0 29 36" fill="none" xmlns="http://www.w3.org/2000/svg">
<g id="White">
<path id="Vector" opacity="0.8" d="M15.463 15.0384L1.62151 23.6989C1.16556 23.0968 0.84236 22.4067 0.672813 21.6731C0.534351 21.0223 0.514005 20.3522 0.612728 19.6943C0.727469 18.6264 1.08653 17.5984 1.66262 16.6885C1.95416 16.2428 2.30045 15.8348 2.69353 15.4736L9.65063 11.2529L15.9088 14.8223L15.463 15.0384Z" fill="white"/>
<path id="Vector_2" d="M20.8168 28.4362V35.4999L3.10784 25.1361C3.10784 25.1361 0.540039 23.5705 0.540039 20.4582C0.540039 20.4582 0.622256 17.2645 2.67144 15.5049C2.56882 15.8541 2.51352 16.2152 2.507 16.5788C2.48074 16.8902 2.51949 17.2035 2.62084 17.4994C2.80663 17.9108 3.13384 18.2437 3.54424 18.4387L20.8168 28.4362Z" fill="white"/>
<path id="Vector_3" opacity="0.8" d="M13.534 20.4613L27.3755 11.8008C27.8314 12.4029 28.1546 13.093 28.3242 13.8266C28.4626 14.4774 28.483 15.1475 28.3843 15.8054C28.2695 16.8733 27.9105 17.9013 27.3344 18.8112C27.0419 19.2561 26.6957 19.6641 26.3035 20.0261L19.3464 24.2468L13.0913 20.6773L13.534 20.4613Z" fill="white"/>
<path id="Vector_4" d="M8.18018 7.06368V0L25.8891 10.3638C25.8891 10.3638 28.4601 11.9294 28.4601 15.0416C28.4601 15.0416 28.3779 18.2353 26.3287 19.995C26.43 19.6456 26.4842 19.2845 26.49 18.921C26.5178 18.6097 26.479 18.296 26.3761 18.0005C26.1914 17.5894 25.8653 17.2565 25.4559 17.0612L8.18018 7.06368Z" fill="white"/>
</g>
</svg>
