<svg width="53" height="36" viewBox="0 0 53 36" fill="none" xmlns="http://www.w3.org/2000/svg">
<g filter="url(#filter0_bd_253_25)">
<path d="M40.1185 12.1509H39.5089C38.78 5.32 32.9831 0 25.9378 0C19.9236 0 14.8238 3.87774 13.0028 9.25849C8.02767 9.50679 4.07031 13.6038 4.07031 18.6226C4.07031 23.2057 7.37032 27.0174 11.7279 27.8362C12.2501 27.9445 12.7908 28 13.3474 28H40.1185C44.5106 28 48.0703 24.4525 48.0703 20.0755C48.0703 15.6985 44.5106 12.1509 40.1185 12.1509Z" fill="url(#paint0_linear_253_25)" shape-rendering="crispEdges"/>
<path d="M38.5145 12.257L38.6099 13.1509H39.5089H40.1185C43.9615 13.1509 47.0703 16.254 47.0703 20.0755C47.0703 23.8969 43.9615 27 40.1185 27H13.3474C12.8575 27 12.3849 26.9512 11.931 26.8571L11.9218 26.8552L11.9126 26.8534C8.01604 26.1212 5.07031 22.7127 5.07031 18.6226C5.07031 14.1427 8.60376 10.4793 13.0527 10.2572L13.732 10.2233L13.9501 9.57905C15.6374 4.59304 20.3642 1 25.9378 1C32.4688 1 37.8395 5.93139 38.5145 12.257Z" stroke="url(#paint1_linear_253_25)" stroke-width="2" shape-rendering="crispEdges"/>
</g>
<defs>
<filter id="filter0_bd_253_25" x="-13.9297" y="-18" width="80" height="64" filterUnits="userSpaceOnUse" color-interpolation-filters="sRGB">
<feFlood flood-opacity="0" result="BackgroundImageFix"/>
<feGaussianBlur in="BackgroundImageFix" stdDeviation="9"/>
<feComposite in2="SourceAlpha" operator="in" result="effect1_backgroundBlur_253_25"/>
<feColorMatrix in="SourceAlpha" type="matrix" values="0 0 0 0 0 0 0 0 0 0 0 0 0 0 0 0 0 0 127 0" result="hardAlpha"/>
<feOffset dy="4"/>
<feGaussianBlur stdDeviation="2"/>
<feComposite in2="hardAlpha" operator="out"/>
<feColorMatrix type="matrix" values="0 0 0 0 0 0 0 0 0 0 0 0 0 0 0 0 0 0 0.25 0"/>
<feBlend mode="normal" in2="effect1_backgroundBlur_253_25" result="effect2_dropShadow_253_25"/>
<feBlend mode="normal" in="SourceGraphic" in2="effect2_dropShadow_253_25" result="shape"/>
</filter>
<linearGradient id="paint0_linear_253_25" x1="6.55437" y1="26.4192" x2="29.0551" y2="-8.93906" gradientUnits="userSpaceOnUse">
<stop stop-color="white" stop-opacity="0.2"/>
<stop offset="1" stop-color="white" stop-opacity="0.49"/>
</linearGradient>
<linearGradient id="paint1_linear_253_25" x1="7.17622" y1="2.20215" x2="27.795" y2="36.8463" gradientUnits="userSpaceOnUse">
<stop stop-color="white"/>
<stop offset="1" stop-color="white" stop-opacity="0"/>
</linearGradient>
</defs>
</svg>
