<svg width="201" height="201" viewBox="0 0 201 201" fill="none" xmlns="http://www.w3.org/2000/svg">
<g filter="url(#filter0_d_253_26)">
<g filter="url(#filter1_f_253_26)">
<path d="M100.473 88.6051C106.898 88.8121 112.084 94.1037 112.149 100.507C112.17 102.851 111.519 105.04 110.376 106.9C110.214 107.162 110.183 107.482 110.281 107.771L111.403 111.12C111.788 112.274 110.639 113.349 109.508 112.892L106.045 111.492C105.776 111.382 105.474 111.385 105.214 111.507C103.67 112.232 101.95 112.643 100.134 112.649C93.6272 112.679 88.2022 107.464 88.0127 100.985C87.8079 94.0459 93.508 88.3798 100.476 88.602L100.473 88.6051Z" fill="url(#paint0_linear_253_26)"/>
</g>
<path d="M100.473 88.6051C106.898 88.8121 112.084 94.1037 112.149 100.507C112.17 102.851 111.519 105.04 110.376 106.9C110.214 107.162 110.183 107.482 110.281 107.771L111.403 111.12C111.788 112.274 110.639 113.349 109.508 112.892L106.045 111.492C105.776 111.382 105.474 111.385 105.214 111.507C103.67 112.232 101.95 112.643 100.134 112.649C93.6272 112.679 88.2022 107.464 88.0127 100.985C87.8079 94.0459 93.508 88.3798 100.476 88.602L100.473 88.6051Z" fill="url(#paint1_linear_253_26)"/>
<g filter="url(#filter2_b_253_26)">
<path d="M87.0981 76.0084C78.7885 76.2758 72.0826 83.1616 72.0008 91.4938C71.9705 94.5447 72.8133 97.395 74.2927 99.8108C74.5019 100.151 74.5413 100.567 74.417 100.947L72.9679 105.308C72.4677 106.809 73.9531 108.207 75.4174 107.611L79.8981 105.791C80.2437 105.651 80.6348 105.651 80.9743 105.812C82.9691 106.754 85.1943 107.289 87.5437 107.298C95.9594 107.335 102.975 100.552 103.22 92.1198C103.484 83.0886 96.114 75.7167 87.1011 76.0084H87.0981Z" fill="url(#paint2_linear_253_26)"/>
<path d="M73.0007 91.5037L73.0007 91.5036C73.0773 83.7095 79.3509 77.2667 87.1145 77.0084H87.1173L87.1335 77.0078C95.5674 76.7349 102.468 83.6328 102.221 92.0906L102.221 92.0906C101.991 99.9814 95.4205 106.332 87.5481 106.298L87.5476 106.298C85.3492 106.29 83.2682 105.79 81.4018 104.908C80.7906 104.619 80.1074 104.628 79.5231 104.864L79.5217 104.865L75.041 106.685L75.0406 106.685C74.3725 106.957 73.6846 106.32 73.9166 105.624L73.9168 105.623L75.3659 101.263L75.3674 101.258C75.5772 100.617 75.5171 99.8936 75.1451 99.2879C73.7611 97.0277 72.9723 94.3613 73.0007 91.5037Z" stroke="url(#paint3_linear_253_26)" stroke-width="2"/>
</g>
</g>
<defs>
<filter id="filter0_d_253_26" x="68" y="76" width="48.1489" height="45" filterUnits="userSpaceOnUse" color-interpolation-filters="sRGB">
<feFlood flood-opacity="0" result="BackgroundImageFix"/>
<feColorMatrix in="SourceAlpha" type="matrix" values="0 0 0 0 0 0 0 0 0 0 0 0 0 0 0 0 0 0 127 0" result="hardAlpha"/>
<feOffset dy="4"/>
<feGaussianBlur stdDeviation="2"/>
<feComposite in2="hardAlpha" operator="out"/>
<feColorMatrix type="matrix" values="0 0 0 0 0 0 0 0 0 0 0 0 0 0 0 0 0 0 0.25 0"/>
<feBlend mode="normal" in2="BackgroundImageFix" result="effect1_dropShadow_253_26"/>
<feBlend mode="normal" in="SourceGraphic" in2="effect1_dropShadow_253_26" result="shape"/>
</filter>
<filter id="filter1_f_253_26" x="0.00732422" y="0.595703" width="200.142" height="200.404" filterUnits="userSpaceOnUse" color-interpolation-filters="sRGB">
<feFlood flood-opacity="0" result="BackgroundImageFix"/>
<feBlend mode="normal" in="SourceGraphic" in2="BackgroundImageFix" result="shape"/>
<feGaussianBlur stdDeviation="44" result="effect1_foregroundBlur_253_26"/>
</filter>
<filter id="filter2_b_253_26" x="54" y="58" width="67.2271" height="67.7517" filterUnits="userSpaceOnUse" color-interpolation-filters="sRGB">
<feFlood flood-opacity="0" result="BackgroundImageFix"/>
<feGaussianBlur in="BackgroundImageFix" stdDeviation="9"/>
<feComposite in2="SourceAlpha" operator="in" result="effect1_backgroundBlur_253_26"/>
<feBlend mode="normal" in="SourceGraphic" in2="effect1_backgroundBlur_253_26" result="shape"/>
</filter>
<linearGradient id="paint0_linear_253_26" x1="97.5332" y1="89.421" x2="102.928" y2="113.379" gradientUnits="userSpaceOnUse">
<stop stop-color="#0BC7FF"/>
<stop offset="1" stop-color="#DB0EFE"/>
</linearGradient>
<linearGradient id="paint1_linear_253_26" x1="97.5332" y1="89.421" x2="102.928" y2="113.379" gradientUnits="userSpaceOnUse">
<stop stop-color="#0BC7FF"/>
<stop offset="1" stop-color="#DB0EFE"/>
</linearGradient>
<linearGradient id="paint2_linear_253_26" x1="73.7629" y1="105.959" x2="101.926" y2="78.262" gradientUnits="userSpaceOnUse">
<stop stop-color="white" stop-opacity="0.2"/>
<stop offset="1" stop-color="white" stop-opacity="0.49"/>
</linearGradient>
<linearGradient id="paint3_linear_253_26" x1="74.2043" y1="78.4972" x2="100.772" y2="106.434" gradientUnits="userSpaceOnUse">
<stop stop-color="white"/>
<stop offset="1" stop-color="white" stop-opacity="0"/>
</linearGradient>
</defs>
</svg>
