<svg width="221" height="202" viewBox="0 0 221 202" fill="none" xmlns="http://www.w3.org/2000/svg">
<g filter="url(#filter0_f_253_13)">
<path d="M129.295 88.4741H116.053C114.521 88.4741 113.279 89.7163 113.279 91.2487V110.754C113.279 112.287 114.521 113.529 116.053 113.529H129.295C130.828 113.529 132.07 112.287 132.07 110.754V91.2487C132.07 89.7163 130.828 88.4741 129.295 88.4741Z" fill="url(#paint0_linear_253_13)"/>
<path d="M104.017 88.4741H90.7746C89.2422 88.4741 88 89.7163 88 91.2487V110.754C88 112.287 89.2422 113.529 90.7746 113.529H104.017C105.549 113.529 106.791 112.287 106.791 110.754V91.2487C106.791 89.7163 105.549 88.4741 104.017 88.4741Z" fill="url(#paint1_linear_253_13)"/>
</g>
<g filter="url(#filter1_f_253_13)">
<path d="M113.816 99.9917L107.981 96.6237C107.204 96.1763 106.235 96.7356 106.235 97.6335V104.37C106.235 105.267 107.204 105.827 107.981 105.379L113.816 102.011C114.593 101.564 114.593 100.442 113.816 99.9948V99.9917Z" fill="white"/>
</g>
<g filter="url(#filter2_d_253_13)">
<path d="M129.295 88.4741H116.053C114.521 88.4741 113.279 89.7163 113.279 91.2487V110.754C113.279 112.287 114.521 113.529 116.053 113.529H129.295C130.828 113.529 132.07 112.287 132.07 110.754V91.2487C132.07 89.7163 130.828 88.4741 129.295 88.4741Z" fill="url(#paint2_linear_253_13)"/>
<path d="M104.017 88.4741H90.7746C89.2422 88.4741 88 89.7163 88 91.2487V110.754C88 112.287 89.2422 113.529 90.7746 113.529H104.017C105.549 113.529 106.791 112.287 106.791 110.754V91.2487C106.791 89.7163 105.549 88.4741 104.017 88.4741Z" fill="url(#paint3_linear_253_13)"/>
<g filter="url(#filter3_b_253_13)">
<path d="M120.123 84H100.17C98.6377 84 97.3955 85.2422 97.3955 86.7746V115.225C97.3955 116.758 98.6377 118 100.17 118H120.123C121.656 118 122.898 116.758 122.898 115.225V86.7746C122.898 85.2422 121.656 84 120.123 84Z" fill="url(#paint4_linear_253_13)"/>
<path d="M100.17 85H120.123C121.103 85 121.898 85.7945 121.898 86.7746V115.225C121.898 116.206 121.103 117 120.123 117H100.17C99.19 117 98.3955 116.205 98.3955 115.225V86.7746C98.3955 85.7945 99.19 85 100.17 85Z" stroke="url(#paint5_linear_253_13)" stroke-width="2"/>
</g>
<path d="M113.816 99.9917L107.981 96.6237C107.204 96.1763 106.235 96.7356 106.235 97.6335V104.37C106.235 105.267 107.204 105.827 107.981 105.379L113.816 102.011C114.593 101.564 114.593 100.442 113.816 99.9948V99.9917Z" fill="white"/>
</g>
<defs>
<filter id="filter0_f_253_13" x="0" y="0.474121" width="220.07" height="201.055" filterUnits="userSpaceOnUse" color-interpolation-filters="sRGB">
<feFlood flood-opacity="0" result="BackgroundImageFix"/>
<feBlend mode="normal" in="SourceGraphic" in2="BackgroundImageFix" result="shape"/>
<feGaussianBlur stdDeviation="44" result="effect1_foregroundBlur_253_13"/>
</filter>
<filter id="filter1_f_253_13" x="18.2349" y="8.46631" width="184.164" height="185.07" filterUnits="userSpaceOnUse" color-interpolation-filters="sRGB">
<feFlood flood-opacity="0" result="BackgroundImageFix"/>
<feBlend mode="normal" in="SourceGraphic" in2="BackgroundImageFix" result="shape"/>
<feGaussianBlur stdDeviation="44" result="effect1_foregroundBlur_253_13"/>
</filter>
<filter id="filter2_d_253_13" x="84" y="84" width="52.0698" height="42" filterUnits="userSpaceOnUse" color-interpolation-filters="sRGB">
<feFlood flood-opacity="0" result="BackgroundImageFix"/>
<feColorMatrix in="SourceAlpha" type="matrix" values="0 0 0 0 0 0 0 0 0 0 0 0 0 0 0 0 0 0 127 0" result="hardAlpha"/>
<feOffset dy="4"/>
<feGaussianBlur stdDeviation="2"/>
<feComposite in2="hardAlpha" operator="out"/>
<feColorMatrix type="matrix" values="0 0 0 0 0 0 0 0 0 0 0 0 0 0 0 0 0 0 0.25 0"/>
<feBlend mode="normal" in2="BackgroundImageFix" result="effect1_dropShadow_253_13"/>
<feBlend mode="normal" in="SourceGraphic" in2="effect1_dropShadow_253_13" result="shape"/>
</filter>
<filter id="filter3_b_253_13" x="79.3955" y="66" width="61.5024" height="70" filterUnits="userSpaceOnUse" color-interpolation-filters="sRGB">
<feFlood flood-opacity="0" result="BackgroundImageFix"/>
<feGaussianBlur in="BackgroundImageFix" stdDeviation="9"/>
<feComposite in2="SourceAlpha" operator="in" result="effect1_backgroundBlur_253_13"/>
<feBlend mode="normal" in="SourceGraphic" in2="effect1_backgroundBlur_253_13" result="shape"/>
</filter>
<linearGradient id="paint0_linear_253_13" x1="91.5639" y1="119.243" x2="134.574" y2="94.0233" gradientUnits="userSpaceOnUse">
<stop stop-color="#7C00FF"/>
<stop offset="0.52" stop-color="#FF6700"/>
<stop offset="1" stop-color="#FFD400"/>
</linearGradient>
<linearGradient id="paint1_linear_253_13" x1="85.0981" y1="108.213" x2="128.105" y2="82.9902" gradientUnits="userSpaceOnUse">
<stop stop-color="#7C00FF"/>
<stop offset="0.52" stop-color="#FF6700"/>
<stop offset="1" stop-color="#FFD400"/>
</linearGradient>
<linearGradient id="paint2_linear_253_13" x1="91.5639" y1="119.243" x2="134.574" y2="94.0233" gradientUnits="userSpaceOnUse">
<stop stop-color="#7C00FF"/>
<stop offset="0.52" stop-color="#FF6700"/>
<stop offset="1" stop-color="#FFD400"/>
</linearGradient>
<linearGradient id="paint3_linear_253_13" x1="85.0981" y1="108.213" x2="128.105" y2="82.9902" gradientUnits="userSpaceOnUse">
<stop stop-color="#7C00FF"/>
<stop offset="0.52" stop-color="#FF6700"/>
<stop offset="1" stop-color="#FFD400"/>
</linearGradient>
<linearGradient id="paint4_linear_253_13" x1="98.8353" y1="116.081" x2="127.791" y2="94.362" gradientUnits="userSpaceOnUse">
<stop stop-color="white" stop-opacity="0.2"/>
<stop offset="1" stop-color="white" stop-opacity="0.49"/>
</linearGradient>
<linearGradient id="paint5_linear_253_13" x1="99.1957" y1="86.674" x2="127.001" y2="108.973" gradientUnits="userSpaceOnUse">
<stop stop-color="white"/>
<stop offset="1" stop-color="white" stop-opacity="0"/>
</linearGradient>
</defs>
</svg>
